HIERARCHY
ROOT Hips
{
	OFFSET -14.64140 90.27770 -84.91600
	CHANNELS 6 Xposition Yposition Zposition Zrotation Xrotation Yrotation
	JOINT Spine
	{
		OFFSET 0.00000 13.20850 -1.60436
		CHANNELS 3 Zrotation Xrotation Yrotation
		JOINT Spine1
		{
			OFFSET 0.00000 8.61716 0.00000
			CHANNELS 3 Zrotation Xrotation Yrotation
			JOINT Spine2
			{
				OFFSET 0.00000 8.61717 0.00000
				CHANNELS 3 Zrotation Xrotation Yrotation
				JOINT Spine3
				{
					OFFSET 0.00000 8.61717 0.00000
					CHANNELS 3 Zrotation Xrotation Yrotation
					JOINT Neck
					{
						OFFSET 0.00000 11.07920 1.10792
						CHANNELS 3 Zrotation Xrotation Yrotation
						JOINT Neck1
						{
							OFFSET 0.00000 7.08032 0.00000
							CHANNELS 3 Zrotation Xrotation Yrotation
							JOINT Head
							{
								OFFSET 0.00000 7.08031 0.00000
								CHANNELS 3 Zrotation Xrotation Yrotation
								End site
								{
									OFFSET 0.00000 0.00000 0.00000
								}
							}
						}
					}
					JOINT RightShoulder
					{
						OFFSET -0.01000 7.91373 5.19711
						CHANNELS 3 Zrotation Xrotation Yrotation
						JOINT RightArm
						{
							OFFSET -18.41580 0.00000 0.00000
							CHANNELS 3 Zrotation Xrotation Yrotation
							JOINT RightForeArm
							{
								OFFSET -29.11090 0.00000 0.00000
								CHANNELS 3 Zrotation Xrotation Yrotation
								JOINT RightHand
								{
									OFFSET -24.65040 0.00000 0.00000
									CHANNELS 3 Zrotation Xrotation Yrotation
									JOINT RightHandThumb1
									{
										OFFSET -5.35114 -0.85590 3.97906
										CHANNELS 3 Zrotation Xrotation Yrotation
										JOINT RightHandThumb2
										{
											OFFSET -4.52789 0.00000 0.00000
											CHANNELS 3 Zrotation Xrotation Yrotation
											JOINT RightHandThumb3
											{
												OFFSET -2.46976 0.00000 0.00000
												CHANNELS 3 Zrotation Xrotation Yrotation
												End site
												{
													OFFSET 0.00000 0.00000 0.00000
												}
											}
										}
									}
									JOINT RightHandIndex1
									{
										OFFSET -14.26970 0.00000 2.88139
										CHANNELS 3 Zrotation Xrotation Yrotation
										JOINT RightHandIndex2
										{
											OFFSET -5.48836 0.00000 0.00000
											CHANNELS 3 Zrotation Xrotation Yrotation
											JOINT RightHandIndex3
											{
												OFFSET -3.01859 0.00000 0.00000
												CHANNELS 3 Zrotation Xrotation Yrotation
												End site
												{
													OFFSET 0.00000 0.00000 0.00000
												}
											}
										}
									}
									JOINT RightHandMiddle1
									{
										OFFSET -14.26970 0.00000 -0.09147
										CHANNELS 3 Zrotation Xrotation Yrotation
										JOINT RightHandMiddle2
										{
											OFFSET -6.17441 0.00000 0.00000
											CHANNELS 3 Zrotation Xrotation Yrotation
											JOINT RightHandMiddle3
											{
												OFFSET -3.56743 0.00000 0.00000
												CHANNELS 3 Zrotation Xrotation Yrotation
												End site
												{
													OFFSET 0.00000 0.00000 0.00000
												}
											}
										}
									}
									JOINT RightHandRing1
									{
										OFFSET -12.69180 0.00000 -3.06433
										CHANNELS 3 Zrotation Xrotation Yrotation
										JOINT RightHandRing2
										{
											OFFSET -5.62556 0.00000 0.00000
											CHANNELS 3 Zrotation Xrotation Yrotation
											JOINT RightHandRing3
											{
												OFFSET -3.56744 0.00000 0.00000
												CHANNELS 3 Zrotation Xrotation Yrotation
												End site
												{
													OFFSET 0.00000 0.00000 0.00000
												}
											}
										}
									}
									JOINT RightHandPinky1
									{
										OFFSET -11.11390 0.00000 -6.03719
										CHANNELS 3 Zrotation Xrotation Yrotation
										JOINT RightHandPinky2
										{
											OFFSET -4.52789 0.00000 0.00000
											CHANNELS 3 Zrotation Xrotation Yrotation
											JOINT RightHandPinky3
											{
												OFFSET -2.46976 0.00000 0.00000
												CHANNELS 3 Zrotation Xrotation Yrotation
												End site
												{
													OFFSET 0.00000 0.00000 0.00000
												}
											}
										}
									}
								}
							}
						}
					}
					JOINT LeftShoulder
					{
						OFFSET 0.01000 7.91373 5.19711
						CHANNELS 3 Zrotation Xrotation Yrotation
						JOINT LeftArm
						{
							OFFSET 18.41580 0.00000 0.00000
							CHANNELS 3 Zrotation Xrotation Yrotation
							JOINT LeftForeArm
							{
								OFFSET 29.11090 0.00000 0.00000
								CHANNELS 3 Zrotation Xrotation Yrotation
								JOINT LeftHand
								{
									OFFSET 24.65040 0.00000 0.00000
									CHANNELS 3 Zrotation Xrotation Yrotation
									JOINT LeftHandThumb1
									{
										OFFSET 5.35114 -0.85590 3.97906
										CHANNELS 3 Zrotation Xrotation Yrotation
										JOINT LeftHandThumb2
										{
											OFFSET 4.52789 0.00000 0.00000
											CHANNELS 3 Zrotation Xrotation Yrotation
											JOINT LeftHandThumb3
											{
												OFFSET 2.46977 0.00000 0.00000
												CHANNELS 3 Zrotation Xrotation Yrotation
												End site
												{
													OFFSET 0.00000 0.00000 0.00000
												}
											}
										}
									}
									JOINT LeftHandIndex1
									{
										OFFSET 14.26970 0.00000 2.88139
										CHANNELS 3 Zrotation Xrotation Yrotation
										JOINT LeftHandIndex2
										{
											OFFSET 5.48836 0.00000 0.00000
											CHANNELS 3 Zrotation Xrotation Yrotation
											JOINT LeftHandIndex3
											{
												OFFSET 3.01859 0.00000 0.00000
												CHANNELS 3 Zrotation Xrotation Yrotation
												End site
												{
													OFFSET 0.00000 0.00000 0.00000
												}
											}
										}
									}
									JOINT LeftHandMiddle1
									{
										OFFSET 14.26970 0.00000 -0.09147
										CHANNELS 3 Zrotation Xrotation Yrotation
										JOINT LeftHandMiddle2
										{
											OFFSET 6.17440 0.00000 0.00000
											CHANNELS 3 Zrotation Xrotation Yrotation
											JOINT LeftHandMiddle3
											{
												OFFSET 3.56744 0.00000 0.00000
												CHANNELS 3 Zrotation Xrotation Yrotation
												End site
												{
													OFFSET 0.00000 0.00000 0.00000
												}
											}
										}
									}
									JOINT LeftHandRing1
									{
										OFFSET 12.69180 0.00000 -3.06433
										CHANNELS 3 Zrotation Xrotation Yrotation
										JOINT LeftHandRing2
										{
											OFFSET 5.62556 0.00000 0.00000
											CHANNELS 3 Zrotation Xrotation Yrotation
											JOINT LeftHandRing3
											{
												OFFSET 3.56744 0.00000 0.00000
												CHANNELS 3 Zrotation Xrotation Yrotation
												End site
												{
													OFFSET 0.00000 0.00000 0.00000
												}
											}
										}
									}
									JOINT LeftHandPinky1
									{
										OFFSET 11.11390 0.00000 -6.03719
										CHANNELS 3 Zrotation Xrotation Yrotation
										JOINT LeftHandPinky2
										{
											OFFSET 4.52789 0.00000 0.00000
											CHANNELS 3 Zrotation Xrotation Yrotation
											JOINT LeftHandPinky3
											{
												OFFSET 2.46976 0.00000 0.00000
												CHANNELS 3 Zrotation Xrotation Yrotation
												End site
												{
													OFFSET 0.00000 0.00000 0.00000
												}
											}
										}
									}
								}
							}
						}
					}
					JOINT pCube4
					{
						OFFSET 0.00000 10.91090 1.10792
						CHANNELS 3 Zrotation Xrotation Yrotation
						End site
						{
							OFFSET 0.00000 0.00000 0.00000
						}
					}
				}
			}
		}
	}
	JOINT RightUpLeg
	{
		OFFSET -9.98441 0.00000 0.00000
		CHANNELS 3 Zrotation Xrotation Yrotation
		JOINT RightLeg
		{
			OFFSET 0.00000 -42.11790 0.00000
			CHANNELS 3 Zrotation Xrotation Yrotation
			JOINT RightFoot
			{
				OFFSET 0.00000 -45.00020 -0.00001
				CHANNELS 3 Zrotation Xrotation Yrotation
				JOINT RightForeFoot
				{
					OFFSET 0.00000 -3.74820 0.00000
					CHANNELS 3 Zrotation Xrotation Yrotation
					JOINT RightToeBase
					{
						OFFSET 0.00000 0.06325 14.43120
						CHANNELS 3 Zrotation Xrotation Yrotation
						End site
						{
							OFFSET 0.00000 0.00000 0.00000
						}
					}
				}
			}
		}
	}
	JOINT LeftUpLeg
	{
		OFFSET 9.98441 0.00000 0.00000
		CHANNELS 3 Zrotation Xrotation Yrotation
		JOINT LeftLeg
		{
			OFFSET 0.00000 -42.11800 0.00000
			CHANNELS 3 Zrotation Xrotation Yrotation
			JOINT LeftFoot
			{
				OFFSET 0.00000 -45.00070 0.00000
				CHANNELS 3 Zrotation Xrotation Yrotation
				JOINT LeftForeFoot
				{
					OFFSET 0.00000 -3.74824 0.00000
					CHANNELS 3 Zrotation Xrotation Yrotation
					JOINT LeftToeBase
					{
						OFFSET 0.00000 0.06325 14.43110
						CHANNELS 3 Zrotation Xrotation Yrotation
						End site
						{
							OFFSET 0.00000 0.00000 0.00000
						}
					}
				}
			}
		}
	}
}
MOTION
Frames: 4
Frame Time: 0.050000
-0.028923494640551495 -0.03716225571273137 -0.03738933169508454 -0.02892298876199689 -0.002316372501994808 -0.035452475360300856 5.206947157309039 3.3741442552973275 -2.227884767856186 -0.8400768235818576 3.397653234882043 0.451061837023411 -0.5731699929916352 -0.891011593381029 1.0253582815342301 -0.7660889890348906 -0.4761261231687618 -0.20371608251368098 -0.2547077589288846 11.176984504002341 -0.6158782832958011 -0.04581155961049836 -1.052477947070115 -1.2948736664931955 0.25841989396667586 -17.750180333310045 -0.14115881386619306 -10.940752373616958 3.9225016740082044 -17.387930574529346 81.83026060471984 -4.576795766483704 12.978022722285424 31.23394279014106 1.7378274635867978 95.19853941421317 9.276768799591856 -0.47509212030342796 -3.9516664769941716 4.523406709633002 -0.13633419449452003 -1.5893151498272824 -0.01757487617803347 0.005206160667273916 -56.223025655911904 -0.041180572516741266 -0.03045587190898254 -56.25077266311329 -38.78017405085081 0.024714578795621323 -0.021473698743586022 -0.016546819391147848 -0.008509794528128443 0.029818915727834586 -0.013680423754936225 0.03575296879989694 0.014025866849094222 -36.666572724427915 -0.010391834484141597 0.003140226719815033 0.012687181700059435 0.04564507888944545 0.02488702761634095 -0.005583890589344527 0.04495003062747012 -0.03950714808377901 -19.757545729778194 -0.029455486702027925 0.01188307583369652 -0.01646904094727986 0.014535582139784195 0.030258345221466938 -0.04305862947323104 -0.026705701396100272 -0.00039860780080461667 24.081051115460305 -0.025044315388493964 -0.026702276061261437 28.83728361114778 0.004606225182111534 -0.015829842663698766 28.819986520103576 0.023306333620050634 0.01896397918553811 10.07181347980224 2.485557453581481 14.22331221140472 -77.21925430237779 18.40316646140713 -13.088982098396544 -9.329188088909044 12.250689184043024 -56.3426095322539 -18.964989957179462 -2.3974717106473467 3.207492556127565 -0.47351456430517086 0.03090166332759113 -8.086895084257424 -0.0008661141445024596 -0.017254320838189025 44.57891479857536 -0.01608639282469089 0.01390724283060743 44.61342845552012 12.41719957266469 0.02609818431755076 -0.006027681555113671 -0.018135255640032898 0.04629851582288535 0.023628414815380618 0.028358498245850672 0.01609911688232092 0.019507959254113465 11.058158967071186 0.010544971450684126 0.04795691687485796 0.021275812431522344 0.024880781780745563 -0.014426278916410393 0.027822789537720223 -0.04072535883367617 -0.016320454134843867 4.725162819348997 0.04695024371055222 0.033478696169319956 -0.02107328108081268 -0.035090566756163385 0.028644490548050332 0.04082401563711597 -0.029479633155913832 0.0013464656358299293 -5.596147335374742 0.02146041592021155 0.016246289260194904 -6.719067182764796 0.016597306202774078 0.02375065279522457 -6.700880144805386 0.0011258290639591859 -0.04986683217227934 -0.044288368130268055 -0.042311499883880326 -0.015007289431958651 8.078073960016903 3.5360237903520093 -19.267720575715654 0.036412231548354136 10.430108473410076 0.048842568052463384 -5.655409131941679 -15.669670641023991 3.2026451881849463 0.016961186845748565 -0.0041134328633652 0.025170394547143732 -0.0014689418286759504 4.690691824992443 0.01003840253333407 12.469707196921707 -8.207939558793699 6.924566586425513 0.022463588355220696 46.358145581872535 -0.0008545346243912925 -4.322740072545772 -14.703656874403045 -3.834767069680203 0.03460912520091049 -0.011492448057077068 -0.048445291416630884 0.015375742811332471 -10.758321443924936 -0.03849143578116779 
0.04797918255240535 0.013061438137598334 -0.024123109876383997 -0.04099687938535795 0.012070790275889094 -0.04542179824035883 5.273113040755032 3.315804877697725 -2.306391615135549 -0.8078419938559902 3.4494391131916458 0.4076120041433962 -0.6123454420769103 -0.8557352776783185 1.2230798410705783 -0.7571146233519179 -0.49783619583559824 -0.22048931856348886 -0.16103172450558895 11.245589273838782 -0.8447792255711183 0.0055076529990024225 -1.120185830382813 -2.0618271334012452 0.34744291160416657 -17.866248603791682 -0.1455164464358973 -10.91824265637422 3.9218723386091145 -17.41621273939202 81.21117101906906 -4.066652998852208 13.226392888965115 30.748993615746706 2.298112203656895 94.94473307543896 9.632689642277654 -0.4586805730902311 -4.055287999179975 4.539720923776873 -0.11157533363800949 -1.5861256019720624 0.03095275489528677 -0.034343535872998876 -56.254568728354904 0.02052947280465134 -0.04901716458568087 -56.23221886838903 -38.757357927925156 -0.021763083143618547 -0.00040336090241860275 -0.00434991044352619 -0.016630630820933114 0.027216859913352938 -0.028001700414402836 0.03995151107596259 -0.04187937485925869 -36.654581148051314 0.043245881665214626 0.020907378359049503 0.021217207683088615 0.026829484469613828 0.0040629152672658295 -0.007224539682637428 0.024617766527333232 -0.0024652167672880427 -19.710969784775003 -0.023398513505318082 0.04807125742749221 0.004856121858184122 0.009281341483306782 0.036065047383663756 0.04265333911790978 -0.04100624660349171 0.03878446000812595 24.086071136804044 0.020132051926988106 0.004182199777881383 28.868371536239085 -0.011562644391493246 -0.00860544540024827 28.863106852684556 0.027444566653419804 0.02242532074518344 9.717653000370818 2.320299487099801 14.34781386321061 -77.34076572375136 18.45476979882657 -11.645871060314143 -7.146729407338348 11.88355486789455 -53.1579766840442 -19.252469470704167 -1.9200917835653657 2.9954802485826564 -0.4631922975810294 0.024282566525569288 -8.150517359823848 -0.045563783346711344 0.03541723465075589 44.589865760820466 -0.004055607175519577 0.03710310861563053 44.54950787634781 12.45099635387141 0.03990968704015553 0.032879503799267476 -0.015623958497800568 0.03368591026729019 -0.00742692786863403 0.01175831576455219 0.035604245532362244 0.010193618552254022 11.0853931728793 -0.02878192761092973 -0.033663358626572965 0.0367403335621552 0.030468120691624394 -0.017736397044862653 -0.006457111640203652 0.0351398453905225 0.04041676426015203 4.734832856849984 0.003462244239162927 0.04768472611806191 -0.004127860407999758 0.006929123004136246 -0.026591563857292097 -0.024678673016894574 0.01834939843886151 -0.026835837625833386 -5.575026232849786 -0.021519845381203342 -0.03254303523925525 -6.699182688354664 0.016566581071561764 0.008044515525771439 -6.687500917730568 -0.01282120245270234 -0.0017580730423258494 -0.008873021523385767 0.011472415039314905 -0.01969930551947032 8.01153866399129 3.4674343327138537 -19.209621546930823 0.013647904637975359 10.410641338315703 0.032191683089962814 -5.577298054861205 -15.63548339544535 3.167771909187646 -0.009724612829820393 -0.021743198922719902 -0.03548203048609257 -0.00578525816148143 4.698684859129075 0.01613097723602816 12.484132666426515 -8.221825384698393 6.8862529876867855 -0.012577761749977627 46.355509111994515 -0.012587198198160046 -4.35099043672948 -14.751203830584474 -3.8679651915641062 -0.04374497784886982 0.006799145000167355 -0.02282656423930979 0.011284162515563302 -10.719298960206764 -0.045540010603178055 
-0.04163463587119132 -0.010876118955220325 -0.04863695725302406 0.0495448501947777 0.0010409283996459485 -0.028445126534736805 5.2542520420183 3.2673899944723335 -2.28229176413344 -0.8438073212846707 3.4679771996133675 0.42542935606097276 -0.6303163311853024 -0.8770899830262465 1.3759136761724364 -0.6852186498242379 -0.5061033545650933 -0.2148180433634478 -0.062481485711787264 11.188246095286994 -1.0919332181089103 -0.007830112523639757 -1.11653444333161 -2.688806323704206 0.4569221639803866 -17.91608394216461 -0.22116279899584532 -10.812275220999478 3.8343661936979965 -17.512168658399087 80.87693934792182 -3.619897898019412 12.9796986291002 30.214568564923432 2.8268743026778322 94.76323667416442 10.004516826231656 -0.4738015791463816 -4.121151785847017 4.480155356772113 -0.11502316883757974 -1.5716131610711022 -0.02317356040971659 -0.028911244812332978 -56.234704603623314 0.030243830032369315 0.01742858765847607 -56.241703903378514 -38.766583561005554 -0.006146180214330669 -0.021255553301082534 0.021458098604182956 -0.0050561419442274515 -0.020496435115678256 -0.0488782299362565 -0.03842698235678266 0.02213879378081049 -36.71322997436661 0.016786608391192552 -0.044470017937245976 -0.012837488018546866 0.03151009679051534 0.009939164848221512 -0.006790380860789089 -0.04177355410259475 0.011073925773394678 -19.756457249483873 0.029183161982813878 -0.01688799339009934 0.04776639332014265 0.041985674501695006 -0.04091754610486941 0.009757270011288307 0.02887809825467681 0.01575532274379775 24.057447557686274 -0.011604984128082991 0.013515324810580558 28.910633234005267 0.011476362171173744 0.019805071574874315 28.847807274755564 -0.029252174378937183 0.014672576829375427 9.357628020525299 2.2701584150144902 14.463621025523967 -77.45492072338986 18.455733190318323 -10.513188656077718 -5.83624224536045 11.54316611929527 -51.09522196682477 -19.50652564187222 -1.7158823590534875 2.8587170634513153 -0.4824122827705963 0.09658888030812184 -8.114014540356825 0.015603689942911936 0.047824740974828875 44.522171828262096 0.03682392595813093 -0.031978895044127306 44.52090212471144 12.427507709103944 0.0193296810781774 0.011221064313701474 -0.023599109189945185 -0.03325666671561618 0.004988292044749028 0.01734942285420931 -0.014195162779149317 -0.014612857482609001 11.115085880931913 -0.01221039133509148 0.018584890090059356 -0.006325969575308933 -0.02268208541697797 -0.022369080004649686 -0.02696592652594028 0.0070627180189817345 -0.027938903940617633 4.788036641581844 -0.007076402906325581 0.007298930341465605 -0.019238620397183954 -0.044160297912913316 0.044741593446886004 0.03379401143183707 -0.029230019601420677 -0.04314457265481722 -5.5732466920639805 -0.016334242087848835 -0.03390164973657151 -6.738148226464969 -0.0046470216304975226 -0.024389590175977617 -6.687256955248107 -0.013251282775003502 0.005882913594164352 0.02657349368427956 0.03022898062401504 0.0005826524307544308 8.068058250557282 3.5095230692445467 -19.170440167251613 0.011288440606383742 10.358398544311127 0.04219169196945659 -5.5840662764708995 -15.648149877097254 3.2249477124380475 -0.022332025576114776 0.045578949587284416 0.021426579877032472 -0.017826580473396435 4.6524377218445485 -0.03310215733491783 12.503455588277001 -8.239691000526593 6.913060701541445 -0.008221996705305585 46.364378519557256 0.02458828085348392 -4.297408327805393 -14.706568065803797 -3.881981623924123 0.025651071390195165 -0.03289079960959885 -0.0045591332186806135 0.013902413275483217 -10.787593679726841 -0.015989508603546337 
-0.04404783712631022 0.04342704876411177 0.005079918052332562 -0.0446905439525439 -0.006612681579668634 0.0007094750435545933 5.280566487815492 3.1339302015007466 -2.2913049552643248 -0.7943609630975745 3.386267237764732 0.4080990003628983 -0.5856654501611241 -0.8321286640982 1.441088277635472 -0.6503684720207566 -0.5551629563352068 -0.216534034080503 0.03130464438223096 11.096561534022081 -1.2963311624426983 0.06831666194362697 -1.2501466578390377 -3.3292084136305133 0.5629210237615868 -18.062645976314162 -0.34271649022656986 -10.754012911718032 3.8744198069861135 -17.599778866530087 80.57377303147115 -3.224375372769259 12.573044444513096 29.34519156873944 3.3297079471664284 95.14309785031881 10.57163322634375 -0.49153028008908084 -4.300248964847137 4.525807583469596 -0.0947545342065813 -1.6427379406161322 -0.03355437729352917 0.03655712443882113 -56.27038538124944 0.037659700431183066 0.02884753921902715 -56.21554610552001 -38.7878758834469 0.043548743910125705 0.010423079333914512 -0.04117627319207449 -0.004643047680154385 0.021973633781138747 0.047489446175202496 -0.02938719186428584 0.01003349344633233 -36.715819080505895 -0.018519564159226353 -0.0009748301801586887 -0.017381812512510093 -0.038803103249154855 -0.016784764105847512 -0.029440835633516883 -0.0014305827585036329 0.023974048362017428 -19.74262394881005 0.025166502569075364 -0.026356281430082295 0.01786172913812199 0.019606500247143943 0.04008156651089913 -0.028630658131559576 0.0001787037517712587 -0.03473956227516495 24.039322969000292 -0.011922671189029548 -0.03506003396649696 28.874036487529953 -0.01671716833115321 0.008924375861692336 28.83374903049789 0.047751219548076276 0.004412493656341892 9.14057987334319 2.2761502344739624 14.499772547090782 -77.58947621719012 18.377898117703502 -9.55269964148604 -4.983297460566892 11.287901349838712 -49.870263629712575 -19.68760847381277 -1.6652382501675715 2.848003269109806 -0.5022175726614805 0.10352372058763556 -8.144533831108305 -0.024464294603501396 0.02334398094005364 44.538861478425204 0.03535554694144277 -0.007866471070798934 44.53614197191279 12.500217596808533 -0.026386567591602142 0.00947107137185704 -0.02408047325998448 0.005286692833154094 0.023544836211412203 0.00650152964753949 -0.004427159371089592 -0.0032534966515821006 11.08798639492571 -0.020557270866902 0.029760511225194977 0.038242090064924454 -0.0345209200933061 0.004369259159201837 0.015873420949153946 0.024092631513380865 -0.043535378207163064 4.735415781837339 0.04518230310646119 0.017402802265614397 -0.02663902132823184 -0.01192519183930185 -0.01838838848392544 -0.0021184908740486505 -0.034040698524898653 -0.012005973336414935 -5.578152349221565 0.006912292054233988 -0.03718545089811588 -6.6988562669503775 0.009673088651518415 0.006471780106370954 -6.70012983749168 0.035664248262275954 0.02247019418726501 -0.0019345953950873629 0.027528505134740356 -0.02001820678482246 8.021658214044061 3.5049984101970937 -19.260984248830844 0.01640260008769669 10.356199084018819 0.020796090136551277 -5.61348997347807 -15.697417134555005 3.2091149650442303 0.0122173799343477 0.03876339206591324 0.04806186843778916 -0.034903632203711496 4.679023403039492 0.022116460385640118 12.437930711304833 -8.250166860829706 6.876506017714969 0.0068886213672278845 46.42102796778243 0.008440588728151214 -4.2775216549547475 -14.747288144675398 -3.83773643728454 -0.04346261201285366 -0.04615227050740006 -0.008508737402557726 0.025738888351377512 -10.78494856757985 -0.0017794133234312606 
